<svg width="12" height="12" viewBox="0 0 12 12" fill="none" xmlns="http://www.w3.org/2000/svg">
<path d="M9.5249 2.45503C9.06644 1.99208 8.52041 1.62501 7.91866 1.37521C7.3169 1.12541 6.67144 0.997868 6.0199 1.00003C3.2899 1.00003 1.0649 3.22503 1.0649 5.95503C1.0649 6.83003 1.2949 7.68003 1.7249 8.43003L1.0249 11L3.6499 10.31C4.3749 10.705 5.1899 10.915 6.0199 10.915C8.7499 10.915 10.9749 8.69003 10.9749 5.96003C10.9749 4.63503 10.4599 3.39003 9.5249 2.45503ZM6.0199 10.075C5.2799 10.075 4.5549 9.87503 3.9199 9.50003L3.7699 9.41003L2.2099 9.82003L2.6249 8.30003L2.5249 8.14503C2.11368 7.48856 1.89536 6.72966 1.8949 5.95503C1.8949 3.68503 3.7449 1.83503 6.0149 1.83503C7.1149 1.83503 8.1499 2.26503 8.9249 3.04503C9.30871 3.42696 9.61286 3.8813 9.81971 4.38169C10.0266 4.88208 10.132 5.41857 10.1299 5.96003C10.1399 8.23003 8.2899 10.075 6.0199 10.075ZM8.2799 6.99503C8.1549 6.93503 7.5449 6.63503 7.4349 6.59003C7.3199 6.55003 7.2399 6.53003 7.1549 6.65003C7.0699 6.77503 6.8349 7.05503 6.7649 7.13503C6.6949 7.22003 6.6199 7.23003 6.4949 7.16503C6.3699 7.10503 5.9699 6.97003 5.4999 6.55003C5.1299 6.22003 4.8849 5.81503 4.8099 5.69003C4.7399 5.56503 4.7999 5.50003 4.8649 5.43503C4.9199 5.38003 4.9899 5.29003 5.0499 5.22003C5.1099 5.15003 5.1349 5.09503 5.1749 5.01503C5.2149 4.93003 5.1949 4.86003 5.1649 4.80003C5.1349 4.74003 4.8849 4.13003 4.7849 3.88003C4.6849 3.64003 4.5799 3.67003 4.5049 3.66503H4.2649C4.1799 3.66503 4.0499 3.69503 3.9349 3.82003C3.8249 3.94503 3.5049 4.24503 3.5049 4.85503C3.5049 5.46503 3.9499 6.05503 4.0099 6.13503C4.0699 6.22003 4.8849 7.47003 6.1249 8.00503C6.4199 8.13503 6.6499 8.21003 6.8299 8.26503C7.1249 8.36003 7.3949 8.34503 7.6099 8.31503C7.8499 8.28003 8.3449 8.01503 8.4449 7.72503C8.5499 7.43503 8.5499 7.19003 8.5149 7.13503C8.4799 7.08003 8.4049 7.05503 8.2799 6.99503Z" fill="white"/>
</svg>
